<svg width="120" height="42" viewBox="0 0 120 42" version="1.1" xmlns="http://www.w3.org/2000/svg" xmlns:xlink="http://www.w3.org/1999/xlink">
<title>Enisey logo</title>
<desc>Created using Figma</desc>
<g id="Canvas" transform="translate(750 334)">
<g id="Enisey logo">
<g id="Mask">
<use xlink:href="#path0_fill" transform="translate(-750 -333.682)" fill="#2F2F2F"/>
</g>
<mask id="mask0_outline" mask-type="alpha">
<g id="Mask">
<use xlink:href="#path0_fill" transform="translate(-750 -333.682)" fill="#FFFFFF"/>
</g>
</mask>
<g id="Color/white" mask="url(#mask0_outline)">
<g id="Rectangle 4 Copy">
<use xlink:href="#path1_fill" transform="translate(-750 -333.682)" fill="#FFFFFF"/>
</g>
</g>
</g>
</g>
<defs>
<path id="path0_fill" fill-rule="evenodd" d="M 0.0151978 0L 117.026 0L 119.683 2.68073L 119.683 41.6662L 119.678 41.6721L 119.668 41.6818L 2.7984 41.6818L 0 38.8582L 0 0.0153198L 0.0151978 0ZM 116.338 2.91525L 115.979 2.55276L 2.52997 2.55276L 2.52997 37.8007L 3.84613 39.1291L 117.154 39.1291L 117.154 3.73853L 116.338 2.91525ZM 23.6466 10.6853L 10.0461 10.6853C 9.84564 10.6853 9.68341 10.8493 9.68341 11.0513L 9.68341 30.5573C 9.68341 30.7593 9.84564 30.9233 10.0461 30.9233L 23.6466 30.9233C 23.8471 30.9233 24.0093 30.7593 24.0093 30.5573L 24.0093 28.3983C 24.0093 28.196 23.8471 28.032 23.6466 28.032L 12.7294 28.032C 12.6295 28.032 12.5485 27.9503 12.5485 27.8498L 12.5485 13.7589C 12.5485 13.658 12.6295 13.5767 12.7294 13.5767L 23.6466 13.5767C 23.8471 13.5767 24.0093 13.4126 24.0093 13.2107L 24.0093 11.0513C 24.0093 10.8493 23.8471 10.6853 23.6466 10.6853ZM 21.1443 19.7239L 21.1443 21.8848C 21.1443 22.0865 20.9821 22.2499 20.7822 22.2499L 13.9989 22.2499C 13.7991 22.2499 13.6375 22.0865 13.6375 21.8848L 13.6375 19.7239C 13.6375 19.5222 13.7991 19.3586 13.9989 19.3586L 20.7822 19.3586C 20.9821 19.3586 21.1443 19.5222 21.1443 19.7239ZM 40.8419 30.9233L 38.694 30.9233C 38.496 30.9233 38.3354 30.7612 38.3354 30.5614L 38.3354 11.0475C 38.3354 10.8474 38.496 10.6853 38.694 10.6853L 40.8419 10.6853C 41.0402 10.6853 41.2009 10.8474 41.2009 11.0475L 41.2009 30.5614C 41.2009 30.7612 41.0402 30.9233 40.8419 30.9233ZM 29.74 19.178L 29.74 11.0475C 29.74 10.8474 29.5793 10.6853 29.3811 10.6853L 27.2332 10.6853C 27.0352 10.6853 26.8746 10.8474 26.8746 11.0475L 26.8746 30.5614C 26.8746 30.7612 27.0352 30.9233 27.2332 30.9233L 29.3811 30.9233C 29.5793 30.9233 29.74 30.7612 29.74 30.5614L 29.74 22.4302C 29.74 22.3307 29.8197 22.2496 29.9187 22.2496L 36.8879 22.2496C 37.0862 22.2496 37.2469 22.0879 37.2469 21.8881L 37.2469 19.7208C 37.2469 19.5207 37.0862 19.3586 36.8879 19.3586L 29.9187 19.3586C 29.8197 19.3586 29.74 19.2779 29.74 19.178ZM 55.5267 18.0865L 58.3922 13.0851L 58.3922 30.5638C 58.3922 30.7623 58.2324 30.9234 58.0354 30.9234L 55.8831 30.9234C 55.6864 30.9234 55.5267 30.7623 55.5267 30.5638L 55.5267 18.0865ZM 44.0659 11.0454L 44.0659 28.5238L 46.931 23.5217L 46.931 11.0454C 46.931 10.8466 46.7713 10.6855 46.5743 10.6855L 44.4222 10.6855C 44.2256 10.6855 44.0659 10.8466 44.0659 11.0454ZM 44.0659 30.9234L 44.0659 30.7208L 55.5267 10.6855L 58.3921 10.6855L 58.3921 10.8875L 46.931 30.9234L 44.0659 30.9234ZM 69.3297 30.9232L 71.2853 30.9232C 72.4697 30.9232 73.4816 30.4995 74.3225 29.6513C 75.1631 28.8029 75.5834 27.7818 75.5834 26.5864L 75.5834 25.5098C 75.5834 25.3059 75.4196 25.1409 75.2178 25.1409L 73.0835 25.1409C 72.8817 25.1409 72.7179 25.3059 72.7179 25.5098L 72.7179 26.5864C 72.7179 26.9914 72.5794 27.3337 72.3027 27.613C 72.0257 27.8925 71.6866 28.0319 71.2853 28.0319L 69.3297 28.0319C 69.1283 28.0319 68.9645 28.1972 68.9645 28.4011L 68.9645 30.5547C 68.9645 30.758 69.1283 30.9232 69.3297 30.9232ZM 75.5834 15.0221L 75.5834 16.0991C 75.5834 16.3026 75.4196 16.4676 75.2178 16.4676L 73.0835 16.4676C 72.8817 16.4676 72.7179 16.3026 72.7179 16.0991L 72.7179 15.0221C 72.7179 14.6172 72.5794 14.2755 72.3027 13.9956C 72.0257 13.7164 71.6866 13.5766 71.2853 13.5766L 69.3297 13.5766C 69.1283 13.5766 68.9645 13.4113 68.9645 13.2078L 68.9645 11.0542C 68.9645 10.8506 69.1283 10.6853 69.3297 10.6853L 71.2853 10.6853C 72.4697 10.6853 73.4816 11.1094 74.3225 11.9576C 75.1631 12.806 75.5834 13.8274 75.5834 15.0221ZM 67.5101 28.032L 65.5552 28.032C 65.1539 28.032 64.8145 27.8925 64.5378 27.613C 64.2608 27.3338 64.1226 26.9914 64.1226 26.5865L 64.1226 15.0221C 64.1226 14.6172 64.2608 14.2755 64.5378 13.9956C 64.8145 13.7164 65.1539 13.5766 65.5552 13.5766L 67.5101 13.5766C 67.7122 13.5766 67.876 13.4113 67.876 13.2078L 67.876 11.0542C 67.876 10.8506 67.7122 10.6853 67.5101 10.6853L 65.5552 10.6853C 64.3705 10.6853 63.3582 11.1094 62.5177 11.9576C 61.6771 12.806 61.2571 13.8274 61.2571 15.0221L 61.2571 26.5865C 61.2571 27.7818 61.6771 28.8029 62.5177 29.6514C 63.3582 30.4995 64.3705 30.9233 65.5552 30.9233L 67.5101 30.9233C 67.7122 30.9233 67.876 30.758 67.876 30.5547L 67.876 28.4012C 67.876 28.1973 67.7122 28.032 67.5101 28.032ZM 92.7746 11.0459C 92.7746 10.8468 92.6146 10.6853 92.4176 10.6853L 81.3138 10.6853L 78.8054 10.6853C 78.6084 10.6853 78.4484 10.8468 78.4484 11.0459L 78.4484 30.563C 78.4484 30.7621 78.6084 30.9233 78.8054 30.9233L 81.3138 30.9233L 92.4176 30.9233C 92.6146 30.9233 92.7746 30.7621 92.7746 30.563L 92.7746 28.3925C 92.7746 28.1934 92.6146 28.032 92.4176 28.032L 81.4909 28.032C 81.3932 28.032 81.3138 27.9519 81.3138 27.8533L 81.3138 13.7553C 81.3138 13.6567 81.3932 13.5766 81.4909 13.5766L 92.4176 13.5766C 92.6146 13.5766 92.7746 13.4155 92.7746 13.2164L 92.7746 11.0459ZM 89.9092 19.719L 89.9092 21.8895C 89.9092 22.0886 89.7492 22.2498 89.5522 22.2498L 82.7594 22.2498C 82.5624 22.2498 82.4023 22.0886 82.4023 21.8895L 82.4023 19.719C 82.4023 19.5199 82.5624 19.3584 82.7594 19.3584L 89.5522 19.3584C 89.7492 19.3584 89.9092 19.5199 89.9092 19.719ZM 100.217 9.03751L 99.2604 8.07257C 99.2269 8.03876 99.2085 7.9931 99.2085 7.94525L 99.2085 6.42477C 99.2085 6.22852 99.366 6.06961 99.5602 6.06961L 100.742 6.06961C 100.936 6.06961 101.094 6.22852 101.094 6.42477L 101.094 6.87534C 101.094 6.88593 101.094 6.89642 101.096 6.90671C 101.098 6.91882 101.102 6.93066 101.106 6.94202C 101.115 6.96429 101.129 6.98477 101.146 7.00201L 101.454 7.31311C 101.488 7.34662 101.533 7.36578 101.58 7.36578L 104.037 7.36578C 104.084 7.36578 104.129 7.34662 104.163 7.31311L 104.471 7.00201C 104.505 6.96851 104.523 6.92288 104.523 6.87534L 104.523 6.42477C 104.523 6.22852 104.681 6.06961 104.875 6.06961L 106.045 6.06961C 106.239 6.06961 106.397 6.22852 106.397 6.42477L 106.397 7.94525C 106.397 7.95486 106.396 7.96436 106.395 7.97369C 106.394 7.97861 106.393 7.98349 106.392 7.98831C 106.391 7.99258 106.389 7.99683 106.388 8.00101C 106.384 8.01523 106.377 8.02881 106.369 8.04147C 106.362 8.05261 106.354 8.06305 106.345 8.07257L 105.388 9.03751C 105.355 9.07101 105.31 9.08984 105.263 9.08984L 100.343 9.08984C 100.331 9.08984 100.32 9.08871 100.309 9.08655C 100.294 9.08368 100.28 9.07898 100.266 9.07254C 100.248 9.06387 100.231 9.05206 100.217 9.03751ZM 109.966 13.0852L 107.101 18.0864L 107.101 30.5598C 107.101 30.7606 107.261 30.9233 107.46 30.9233L 109.605 30.9233C 109.804 30.9233 109.966 30.7606 109.966 30.5598L 109.966 13.0852ZM 95.6393 28.5237L 95.6393 11.0488C 95.6393 10.8481 95.8006 10.6853 95.9995 10.6853L 98.1446 10.6853C 98.3435 10.6853 98.5048 10.8481 98.5048 11.0488L 98.5048 23.5219L 95.6393 28.5237ZM 95.6393 30.7207L 95.6393 30.9233L 98.5048 30.9233L 109.966 10.8876L 109.966 10.6853L 107.1 10.6853L 95.6393 30.7207Z"/>
<path id="path1_fill" fill-rule="evenodd" d="M 0 0L 119.683 0L 119.683 41.6818L 0 41.6818L 0 0Z"/>
</defs>
</svg>
